<svg width="32" height="24" viewBox="0 0 32 24" fill="none" xmlns="http://www.w3.org/2000/svg">
<path d="M1 4.87954C1 4.913 1 4.94646 1 7.24241C1 9.53836 1 14.0958 1.07947 16.8477C1.21198 21.4359 1.58166 22.0202 1.74551 22.4133C1.82427 22.6023 2.135 22.6159 4.01088 22.6593C5.88677 22.7027 9.37996 22.7361 12.4864 22.5467C15.5929 22.3573 18.2068 21.944 20.263 21.7168C22.3191 21.4897 23.7383 21.4612 24.5082 21.3663C25.2781 21.2713 25.3556 21.1108 25.7935 19.4966C26.2314 17.8825 27.0273 14.8195 27.9289 11.9538C28.8305 9.08811 29.8138 6.51242 30.2368 5.1574C30.6598 3.80238 30.4927 3.74608 29.6611 3.71934C25.6262 3.5896 24.8342 3.82804 22.2225 4.25598C20.6512 4.51345 19.0911 4.765 17.7425 4.94992C16.7825 5.08154 14.7335 5.22095 11.8315 5.34986C8.63746 5.49174 7.65657 5.72265 7.37159 5.88227C7.03395 6.07138 6.95589 7.08711 6.17554 9.21074C5.62034 10.7216 4.82045 13.1404 4.2073 15.1119C3.59415 17.0834 3.21205 18.5415 2.98072 19.504C2.7494 20.4666 2.68044 20.8894 2.6094 21.325" stroke="#FF674D" stroke-width="2" stroke-linecap="round"/>
<path d="M1.05957 2.24243C1.07947 2.24243 1.09936 2.24243 2.54906 2.23327C3.99875 2.22412 6.87763 2.2058 10.1054 2.01086C13.3331 1.81591 16.8224 1.44488 18.7076 1.24493C20.7679 1.02641 21.3849 0.974809 22.0776 1.01001C22.3339 1.07958 22.397 1.25413 22.4293 1.56901C22.4615 1.8839 22.4611 2.33383 22.4401 2.83508" stroke="#FF674D" stroke-width="2" stroke-linecap="round"/>
</svg>
