<svg width="25" height="27" viewBox="0 0 25 27" fill="none" xmlns="http://www.w3.org/2000/svg">
<path d="M1 13.231C1 13.2236 1 13.2162 4.72854 13.211C8.45707 13.2059 15.9141 13.2032 23.6509 13.286" stroke="#FF674D" stroke-width="2" stroke-linecap="round"/>
<path d="M11.214 1.00076C11.2066 0.993355 11.1992 0.985955 11.1917 5.02417C11.1842 9.06239 11.1768 17.1465 11.1692 25.4755" stroke="#FF674D" stroke-width="2" stroke-linecap="round"/>
<path d="M6.4635 20.4204C6.56643 20.0708 8.23525 17.4809 10.8653 13.7612C14.2339 9.77957 15.4167 8.98156 15.7451 8.6741C15.9059 8.49401 16.055 8.26505 16.2698 7.98227" stroke="#FF674D" stroke-width="2" stroke-linecap="round"/>
<path d="M17.6642 19.9543C17.6512 19.9543 17.3649 19.7763 16.567 19.2012C15.3005 18.1935 13.5431 16.3427 11.2687 13.3688C9.98085 11.6167 8.42145 9.3711 6.75635 7.00784" stroke="#FF674D" stroke-width="2" stroke-linecap="round"/>
</svg>
