<svg width="35" height="26" viewBox="0 0 35 26" fill="none" xmlns="http://www.w3.org/2000/svg">
<path d="M1 12.2603C4.38872 12.2205 11.758 12.3075 12.9968 12.9081C13.3278 13.0686 13.5968 13.2934 13.6539 13.5387C13.5318 14.0729 10.2649 17.3374 5.47975 21.9151C3.77695 23.5259 3.54706 23.6907 2.74111 24.0471" stroke="#FF674D" stroke-width="2" stroke-linecap="round"/>
<path d="M13.4486 8.02155C16.7572 8.02155 23.0108 8.29065 22.8902 8.92557C22.796 9.29138 22.635 9.74574 21.4761 11.7347C20.3172 13.7238 18.1653 17.2336 15.925 20.9156" stroke="#FF674D" stroke-width="2" stroke-linecap="round"/>
<path d="M20.3917 3.53933C21.7551 3.53933 27.8561 2.84679 31.9234 1.42614C32.5756 1.19834 32.8857 0.922147 33.0753 1.02028C32.277 4.61481 29.9275 10.4937 29.5449 11.3049C29.3851 11.6576 29.2952 11.8907 29.2026 12.1308" stroke="#FF674D" stroke-width="2" stroke-linecap="round"/>
</svg>
